<svg width="35" height="36" viewBox="0 0 35 36" fill="none" xmlns="http://www.w3.org/2000/svg">
<path fill-rule="evenodd" clip-rule="evenodd" d="M17.6358 1.48169C20.1942 1.58958 21.6628 4.54686 24.026 5.54194C26.8683 6.73871 30.9276 5.41056 32.8096 7.87088C34.6258 10.2451 32.6958 13.7158 32.571 16.7127C32.452 19.5712 33.2744 22.5358 32.0908 25.1355C30.8695 27.8178 28.3864 29.6139 25.9521 31.2504C23.3979 32.9676 20.7 34.6809 17.6358 34.8534C14.5052 35.0295 10.972 34.4665 8.76623 32.2175C6.58094 29.9893 7.6697 26.1306 6.3142 23.3097C5.09657 20.7757 2.04879 19.43 1.31582 16.7127C0.51343 13.7379 0.143866 10.0301 2.09157 7.65506C4.08604 5.22304 8.01888 6.14571 10.9297 4.9897C13.3132 4.04308 15.0766 1.37378 17.6358 1.48169Z" fill="#F582AE" stroke="#001858"/>
<ellipse cx="17.1253" cy="16.9403" rx="9.45908" ry="9.54426" fill="#F3D2C1" stroke="#001858"/>
<path d="M14.2878 19.969C17.064 21.4267 17.6682 21.3248 20.3271 19.7181" stroke="#001858" stroke-linecap="round" stroke-linejoin="round"/>
<path d="M21.4769 15.4131C19.9106 13.601 19.5867 13.6703 18.2608 15.3885" stroke="#001858" stroke-linecap="round" stroke-linejoin="round"/>
<path d="M15.8014 15.4131C14.2351 13.601 13.9112 13.6703 12.5853 15.3885" stroke="#001858" stroke-linecap="round" stroke-linejoin="round"/>
</svg>
