<svg width="203" height="187" viewBox="0 0 203 187" fill="none" xmlns="http://www.w3.org/2000/svg">
<path fill-rule="evenodd" clip-rule="evenodd" d="M115.697 3.01665C129.221 3.58182 136.984 19.0743 149.476 24.2872C164.5 30.5569 185.957 23.599 195.905 36.488C205.505 48.926 195.303 67.1083 194.644 82.8079C194.015 97.7828 198.362 113.314 192.105 126.933C185.65 140.985 172.524 150.394 159.657 158.968C146.156 167.963 131.895 176.939 115.697 177.843C99.1494 178.765 80.473 175.816 68.8136 164.034C57.2623 152.361 63.0174 132.146 55.8523 117.368C49.416 104.093 33.3057 97.0435 29.4313 82.8079C25.1899 67.2241 23.2364 47.7994 33.5318 35.3574C44.0745 22.6166 64.8632 27.4503 80.2493 21.3942C92.8485 16.4351 102.17 2.45132 115.697 3.01665Z" fill="#8BD3DD" stroke="#001858" stroke-width="6"/>
<path fill-rule="evenodd" clip-rule="evenodd" d="M92.6974 9.01665C106.221 9.58182 113.984 25.0743 126.476 30.2872C141.5 36.5569 162.957 29.599 172.905 42.488C182.505 54.926 172.303 73.1083 171.644 88.8079C171.015 103.783 175.362 119.314 169.105 132.933C162.65 146.985 149.524 156.394 136.657 164.968C123.156 173.963 108.895 182.939 92.6974 183.843C76.1494 184.765 57.473 181.816 45.8136 170.034C34.2623 158.361 40.0174 138.146 32.8523 123.368C26.416 110.093 10.3057 103.043 6.43127 88.8079C2.1899 73.2241 0.236408 53.7994 10.5318 41.3574C21.0745 28.6166 41.8632 33.4503 57.2493 27.3942C69.8485 22.4351 79.1697 8.45132 92.6974 9.01665Z" fill="#F582AE" stroke="#001858" stroke-width="6"/>
<circle cx="89.9998" cy="90" r="50" fill="#F3D2C1" stroke="#001858" stroke-width="6"/>
<path d="M74.9998 103.451C89.6744 111.087 92.8685 110.554 106.923 102.136" stroke="#001858" stroke-width="6" stroke-linecap="round" stroke-linejoin="round"/>
<path d="M113 82C104.72 72.5071 103.008 72.8699 95.9998 81.871" stroke="#001858" stroke-width="5" stroke-linecap="round" stroke-linejoin="round"/>
<path d="M82.9998 82C74.7204 72.5071 73.0083 72.8699 65.9998 81.871" stroke="#001858" stroke-width="5" stroke-linecap="round" stroke-linejoin="round"/>
</svg>
