<?xml version="1.0" standalone="no"?>
<!DOCTYPE svg PUBLIC "-//W3C//DTD SVG 20010904//EN"
 "http://www.w3.org/TR/2001/REC-SVG-20010904/DTD/svg10.dtd">
<svg version="1.0" xmlns="http://www.w3.org/2000/svg"
 width="406.000000pt" height="406.000000pt" viewBox="0 0 406.000000 406.000000"
 preserveAspectRatio="xMidYMid meet">
<metadata>
Created by potrace 1.14, written by Peter Selinger 2001-2017
</metadata>
<g transform="translate(0.000000,406.000000) scale(0.100000,-0.100000)"
fill="#000000" stroke="none">
<path d="M2195 3889 c-45 -10 -127 -47 -195 -87 -41 -24 -55 -27 -150 -27
-157 -1 -244 -38 -440 -185 -114 -86 -190 -134 -214 -136 -143 -9 -320 -51
-416 -99 -25 -13 -76 -26 -115 -30 -38 -4 -72 -8 -75 -10 -3 -1 -26 -6 -51 -9
-64 -9 -163 -42 -229 -77 -148 -79 -254 -245 -295 -459 -9 -51 -12 -122 -10
-220 4 -148 7 -173 26 -270 54 -273 94 -343 326 -577 133 -133 213 -223 213
-239 0 -4 6 -15 14 -23 8 -9 25 -48 39 -87 31 -87 47 -172 62 -329 36 -387
102 -526 315 -670 208 -139 440 -196 775 -190 175 4 221 10 350 48 67 20 149
51 155 58 3 4 29 9 58 13 188 23 315 61 487 148 134 68 164 85 350 206 330
215 526 385 637 553 67 101 100 169 130 275 24 85 25 131 17 664 -3 210 -6
191 71 530 27 120 34 304 15 377 -38 140 -114 233 -239 292 -101 48 -180 65
-356 76 -211 13 -249 17 -320 31 -111 23 -205 70 -292 147 -76 67 -173 153
-184 165 -31 30 -150 103 -202 123 -63 24 -189 33 -257 18z"/>
</g>
</svg>
